{
    "asset" : {
        "generator" : "Khronos glTF Blender I/O v1.8.19",
        "version" : "2.0"
    },
    "scene" : 0,
    "scenes" : [
        {
            "name" : "Scene",
            "nodes" : [
                0
            ]
        }
    ],
    "nodes" : [
        {
            "mesh" : 0,
            "name" : "Cube.006"
        }
    ],
    "materials" : [
        {
            "doubleSided" : true,
            "name" : "hojas",
            "pbrMetallicRoughness" : {
                "baseColorFactor" : [
                    0.800000011920929,
                    0.800000011920929,
                    0.800000011920929,
                    1
                ],
                "metallicFactor" : 0,
                "roughnessFactor" : 0.5
            }
        },
        {
            "doubleSided" : true,
            "name" : "tronco",
            "pbrMetallicRoughness" : {
                "baseColorFactor" : [
                    0.800000011920929,
                    0.800000011920929,
                    0.800000011920929,
                    1
                ],
                "metallicFactor" : 0,
                "roughnessFactor" : 0.5
            }
        }
    ],
    "meshes" : [
        {
            "name" : "Cube.007",
            "primitives" : [
                {
                    "attributes" : {
                        "POSITION" : 0,
                        "NORMAL" : 1,
                        "TEXCOORD_0" : 2
                    },
                    "indices" : 3,
                    "material" : 0
                },
                {
                    "attributes" : {
                        "POSITION" : 4,
                        "NORMAL" : 5,
                        "TEXCOORD_0" : 6
                    },
                    "indices" : 7,
                    "material" : 1
                }
            ]
        }
    ],
    "accessors" : [
        {
            "bufferView" : 0,
            "componentType" : 5126,
            "count" : 1924,
            "max" : [
                1.7305313348770142,
                10.395206451416016,
                5.276432514190674
            ],
            "min" : [
                -1.3076882362365723,
                1.7457622289657593,
                -4.627676963806152
            ],
            "type" : "VEC3"
        },
        {
            "bufferView" : 1,
            "componentType" : 5126,
            "count" : 1924,
            "type" : "VEC3"
        },
        {
            "bufferView" : 2,
            "componentType" : 5126,
            "count" : 1924,
            "type" : "VEC2"
        },
        {
            "bufferView" : 3,
            "componentType" : 5123,
            "count" : 3036,
            "type" : "SCALAR"
        },
        {
            "bufferView" : 4,
            "componentType" : 5126,
            "count" : 348,
            "max" : [
                0.9510565400123596,
                4.829211235046387,
                1
            ],
            "min" : [
                -0.9510564208030701,
                -0.5770688056945801,
                -1.3631360530853271
            ],
            "type" : "VEC3"
        },
        {
            "bufferView" : 5,
            "componentType" : 5126,
            "count" : 348,
            "type" : "VEC3"
        },
        {
            "bufferView" : 6,
            "componentType" : 5126,
            "count" : 348,
            "type" : "VEC2"
        },
        {
            "bufferView" : 7,
            "componentType" : 5123,
            "count" : 540,
            "type" : "SCALAR"
        }
    ],
    "bufferViews" : [
        {
            "buffer" : 0,
            "byteLength" : 23088,
            "byteOffset" : 0
        },
        {
            "buffer" : 0,
            "byteLength" : 23088,
            "byteOffset" : 23088
        },
        {
            "buffer" : 0,
            "byteLength" : 15392,
            "byteOffset" : 46176
        },
        {
            "buffer" : 0,
            "byteLength" : 6072,
            "byteOffset" : 61568
        },
        {
            "buffer" : 0,
            "byteLength" : 4176,
            "byteOffset" : 67640
        },
        {
            "buffer" : 0,
            "byteLength" : 4176,
            "byteOffset" : 71816
        },
        {
            "buffer" : 0,
            "byteLength" : 2784,
            "byteOffset" : 75992
        },
        {
            "buffer" : 0,
            "byteLength" : 1080,
            "byteOffset" : 78776
        }
    ],
    "buffers" : [
        {
            "byteLength" : 79856,
            "uri" : "data:application/octet-stream;base64,"
        }
    ]
}
