{
    "asset" : {
        "generator" : "Khronos glTF Blender I/O v1.8.19",
        "version" : "2.0"
    },
    "scene" : 0,
    "scenes" : [
        {
            "name" : "Scene",
            "nodes" : [
                0
            ]
        }
    ],
    "nodes" : [
        {
            "mesh" : 0,
            "name" : "Cube",
            "translation" : [
                0,
                1.5813498497009277,
                0
            ]
        }
    ],
    "materials" : [
        {
            "doubleSided" : true,
            "name" : "traje",
            "pbrMetallicRoughness" : {
                "baseColorFactor" : [
                    0.800000011920929,
                    0.800000011920929,
                    0.800000011920929,
                    1
                ],
                "metallicFactor" : 0,
                "roughnessFactor" : 0.5
            }
        },
        {
            "doubleSided" : true,
            "name" : "vidrio",
            "pbrMetallicRoughness" : {
                "baseColorFactor" : [
                    0.6981919407844543,
                    0.567764401435852,
                    0,
                    1
                ],
                "metallicFactor" : 0,
                "roughnessFactor" : 0.5
            }
        },
        {
            "doubleSided" : true,
            "name" : "botones",
            "pbrMetallicRoughness" : {
                "baseColorFactor" : [
                    0,
                    0,
                    0,
                    1
                ],
                "metallicFactor" : 0,
                "roughnessFactor" : 0.5
            }
        },
        {
            "doubleSided" : true,
            "name" : "botas",
            "pbrMetallicRoughness" : {
                "baseColorFactor" : [
                    0.2529425323009491,
                    0.2529425323009491,
                    0.2529425323009491,
                    1
                ],
                "metallicFactor" : 0,
                "roughnessFactor" : 0.5
            }
        },
        {
            "doubleSided" : true,
            "name" : "banderaV",
            "pbrMetallicRoughness" : {
                "baseColorFactor" : [
                    0.0024771203752607107,
                    0.2019001692533493,
                    0,
                    1
                ],
                "metallicFactor" : 0,
                "roughnessFactor" : 0.5
            }
        },
        {
            "doubleSided" : true,
            "name" : "bandera",
            "pbrMetallicRoughness" : {
                "metallicFactor" : 0,
                "roughnessFactor" : 0.5
            }
        },
        {
            "doubleSided" : true,
            "name" : "banderaR",
            "pbrMetallicRoughness" : {
                "baseColorFactor" : [
                    0.8000000715255737,
                    0,
                    0.0013263217406347394,
                    1
                ],
                "metallicFactor" : 0,
                "roughnessFactor" : 0.5
            }
        }
    ],
    "meshes" : [
        {
            "name" : "Cube.001",
            "primitives" : [
                {
                    "attributes" : {
                        "POSITION" : 0,
                        "NORMAL" : 1,
                        "TEXCOORD_0" : 2
                    },
                    "indices" : 3,
                    "material" : 0
                },
                {
                    "attributes" : {
                        "POSITION" : 4,
                        "NORMAL" : 5,
                        "TEXCOORD_0" : 6
                    },
                    "indices" : 7,
                    "material" : 1
                },
                {
                    "attributes" : {
                        "POSITION" : 8,
                        "NORMAL" : 9,
                        "TEXCOORD_0" : 10
                    },
                    "indices" : 11,
                    "material" : 2
                },
                {
                    "attributes" : {
                        "POSITION" : 12,
                        "NORMAL" : 13,
                        "TEXCOORD_0" : 14
                    },
                    "indices" : 15,
                    "material" : 3
                },
                {
                    "attributes" : {
                        "POSITION" : 16,
                        "NORMAL" : 17,
                        "TEXCOORD_0" : 18
                    },
                    "indices" : 19,
                    "material" : 4
                },
                {
                    "attributes" : {
                        "POSITION" : 20,
                        "NORMAL" : 21,
                        "TEXCOORD_0" : 22
                    },
                    "indices" : 23,
                    "material" : 5
                },
                {
                    "attributes" : {
                        "POSITION" : 24,
                        "NORMAL" : 25,
                        "TEXCOORD_0" : 26
                    },
                    "indices" : 27,
                    "material" : 6
                }
            ]
        }
    ],
    "accessors" : [
        {
            "bufferView" : 0,
            "componentType" : 5126,
            "count" : 1672,
            "max" : [
                1.5922666788101196,
                2.9464364051818848,
                1.1065105199813843
            ],
            "min" : [
                -1.5486394166946411,
                -1.1774492263793945,
                -1.2215312719345093
            ],
            "type" : "VEC3"
        },
        {
            "bufferView" : 1,
            "componentType" : 5126,
            "count" : 1672,
            "type" : "VEC3"
        },
        {
            "bufferView" : 2,
            "componentType" : 5126,
            "count" : 1672,
            "type" : "VEC2"
        },
        {
            "bufferView" : 3,
            "componentType" : 5123,
            "count" : 2874,
            "type" : "SCALAR"
        },
        {
            "bufferView" : 4,
            "componentType" : 5126,
            "count" : 68,
            "max" : [
                1.7113866806030273,
                2.5739731788635254,
                1.376050591468811
            ],
            "min" : [
                -1.7096056938171387,
                0.9263612627983093,
                -0.08418690413236618
            ],
            "type" : "VEC3"
        },
        {
            "bufferView" : 5,
            "componentType" : 5126,
            "count" : 68,
            "type" : "VEC3"
        },
        {
            "bufferView" : 6,
            "componentType" : 5126,
            "count" : 68,
            "type" : "VEC2"
        },
        {
            "bufferView" : 7,
            "componentType" : 5123,
            "count" : 150,
            "type" : "SCALAR"
        },
        {
            "bufferView" : 8,
            "componentType" : 5126,
            "count" : 794,
            "max" : [
                1.7620213031768799,
                2.668795108795166,
                1.1065105199813843
            ],
            "min" : [
                -1.7602403163909912,
                -1.584417462348938,
                -1.0329614877700806
            ],
            "type" : "VEC3"
        },
        {
            "bufferView" : 9,
            "componentType" : 5126,
            "count" : 794,
            "type" : "VEC3"
        },
        {
            "bufferView" : 10,
            "componentType" : 5126,
            "count" : 794,
            "type" : "VEC2"
        },
        {
            "bufferView" : 11,
            "componentType" : 5123,
            "count" : 1404,
            "type" : "SCALAR"
        },
        {
            "bufferView" : 12,
            "componentType" : 5126,
            "count" : 1468,
            "max" : [
                1.8803542852401733,
                2.114711284637451,
                0.7792214751243591
            ],
            "min" : [
                -1.8752106428146362,
                -1.584417462348938,
                -0.8624902963638306
            ],
            "type" : "VEC3"
        },
        {
            "bufferView" : 13,
            "componentType" : 5126,
            "count" : 1468,
            "type" : "VEC3"
        },
        {
            "bufferView" : 14,
            "componentType" : 5126,
            "count" : 1468,
            "type" : "VEC2"
        },
        {
            "bufferView" : 15,
            "componentType" : 5123,
            "count" : 2394,
            "type" : "SCALAR"
        },
        {
            "bufferView" : 16,
            "componentType" : 5126,
            "count" : 4,
            "max" : [
                -0.04968597739934921,
                0.15431460738182068,
                0.3550437092781067
            ],
            "min" : [
                -0.15083760023117065,
                -0.01771632581949234,
                0.3550437092781067
            ],
            "type" : "VEC3"
        },
        {
            "bufferView" : 17,
            "componentType" : 5126,
            "count" : 4,
            "type" : "VEC3"
        },
        {
            "bufferView" : 18,
            "componentType" : 5126,
            "count" : 4,
            "type" : "VEC2"
        },
        {
            "bufferView" : 19,
            "componentType" : 5123,
            "count" : 6,
            "type" : "SCALAR"
        },
        {
            "bufferView" : 20,
            "componentType" : 5126,
            "count" : 8,
            "max" : [
                0.05146564543247223,
                0.15431460738182068,
                0.3550437092781067
            ],
            "min" : [
                -0.04968597739934921,
                -0.01771632581949234,
                0.3550437092781067
            ],
            "type" : "VEC3"
        },
        {
            "bufferView" : 21,
            "componentType" : 5126,
            "count" : 8,
            "type" : "VEC3"
        },
        {
            "bufferView" : 22,
            "componentType" : 5126,
            "count" : 8,
            "type" : "VEC2"
        },
        {
            "bufferView" : 23,
            "componentType" : 5123,
            "count" : 24,
            "type" : "SCALAR"
        },
        {
            "bufferView" : 24,
            "componentType" : 5126,
            "count" : 8,
            "max" : [
                0.15261727571487427,
                0.15431460738182068,
                0.3550437092781067
            ],
            "min" : [
                -0.020164426416158676,
                -0.01771632581949234,
                0.3550437092781067
            ],
            "type" : "VEC3"
        },
        {
            "bufferView" : 25,
            "componentType" : 5126,
            "count" : 8,
            "type" : "VEC3"
        },
        {
            "bufferView" : 26,
            "componentType" : 5126,
            "count" : 8,
            "type" : "VEC2"
        },
        {
            "bufferView" : 27,
            "componentType" : 5123,
            "count" : 12,
            "type" : "SCALAR"
        }
    ],
    "bufferViews" : [
        {
            "buffer" : 0,
            "byteLength" : 20064,
            "byteOffset" : 0
        },
        {
            "buffer" : 0,
            "byteLength" : 20064,
            "byteOffset" : 20064
        },
        {
            "buffer" : 0,
            "byteLength" : 13376,
            "byteOffset" : 40128
        },
        {
            "buffer" : 0,
            "byteLength" : 5748,
            "byteOffset" : 53504
        },
        {
            "buffer" : 0,
            "byteLength" : 816,
            "byteOffset" : 59252
        },
        {
            "buffer" : 0,
            "byteLength" : 816,
            "byteOffset" : 60068
        },
        {
            "buffer" : 0,
            "byteLength" : 544,
            "byteOffset" : 60884
        },
        {
            "buffer" : 0,
            "byteLength" : 300,
            "byteOffset" : 61428
        },
        {
            "buffer" : 0,
            "byteLength" : 9528,
            "byteOffset" : 61728
        },
        {
            "buffer" : 0,
            "byteLength" : 9528,
            "byteOffset" : 71256
        },
        {
            "buffer" : 0,
            "byteLength" : 6352,
            "byteOffset" : 80784
        },
        {
            "buffer" : 0,
            "byteLength" : 2808,
            "byteOffset" : 87136
        },
        {
            "buffer" : 0,
            "byteLength" : 17616,
            "byteOffset" : 89944
        },
        {
            "buffer" : 0,
            "byteLength" : 17616,
            "byteOffset" : 107560
        },
        {
            "buffer" : 0,
            "byteLength" : 11744,
            "byteOffset" : 125176
        },
        {
            "buffer" : 0,
            "byteLength" : 4788,
            "byteOffset" : 136920
        },
        {
            "buffer" : 0,
            "byteLength" : 48,
            "byteOffset" : 141708
        },
        {
            "buffer" : 0,
            "byteLength" : 48,
            "byteOffset" : 141756
        },
        {
            "buffer" : 0,
            "byteLength" : 32,
            "byteOffset" : 141804
        },
        {
            "buffer" : 0,
            "byteLength" : 12,
            "byteOffset" : 141836
        },
        {
            "buffer" : 0,
            "byteLength" : 96,
            "byteOffset" : 141848
        },
        {
            "buffer" : 0,
            "byteLength" : 96,
            "byteOffset" : 141944
        },
        {
            "buffer" : 0,
            "byteLength" : 64,
            "byteOffset" : 142040
        },
        {
            "buffer" : 0,
            "byteLength" : 48,
            "byteOffset" : 142104
        },
        {
            "buffer" : 0,
            "byteLength" : 96,
            "byteOffset" : 142152
        },
        {
            "buffer" : 0,
            "byteLength" : 96,
            "byteOffset" : 142248
        },
        {
            "buffer" : 0,
            "byteLength" : 64,
            "byteOffset" : 142344
        },
        {
            "buffer" : 0,
            "byteLength" : 24,
            "byteOffset" : 142408
        }
    ],
    "buffers" : [
        {
            "byteLength" : 142432,
            "uri" : "data:application/octet-stream;base64,"
        }
    ]
}
