{
    "asset" : {
        "generator" : "Khronos glTF Blender I/O v1.8.19",
        "version" : "2.0"
    },
    "scene" : 0,
    "scenes" : [
        {
            "name" : "Scene",
            "nodes" : [
                0
            ]
        }
    ],
    "nodes" : [
        {
            "mesh" : 0,
            "name" : "Cube.001",
            "scale" : [
                0.12186606228351593,
                0.20619910955429077,
                0.10658492892980576
            ],
            "translation" : [
                0.4594232738018036,
                0.9430363178253174,
                0.3649086356163025
            ]
        }
    ],
    "materials" : [
        {
            "doubleSided" : true,
            "name" : "ojos",
            "pbrMetallicRoughness" : {
                "baseColorFactor" : [
                    0.800000011920929,
                    0.800000011920929,
                    0.800000011920929,
                    1
                ],
                "metallicFactor" : 0,
                "roughnessFactor" : 0.5
            }
        },
        {
            "doubleSided" : true,
            "name" : "cabeza",
            "pbrMetallicRoughness" : {
                "baseColorFactor" : [
                    0.800000011920929,
                    0.800000011920929,
                    0.800000011920929,
                    1
                ],
                "metallicFactor" : 0,
                "roughnessFactor" : 0.5
            }
        },
        {
            "doubleSided" : true,
            "name" : "nariz",
            "pbrMetallicRoughness" : {
                "baseColorFactor" : [
                    0.800000011920929,
                    0.800000011920929,
                    0.800000011920929,
                    1
                ],
                "metallicFactor" : 0,
                "roughnessFactor" : 0.5
            }
        },
        {
            "doubleSided" : true,
            "name" : "orejas",
            "pbrMetallicRoughness" : {
                "baseColorFactor" : [
                    0.800000011920929,
                    0.800000011920929,
                    0.800000011920929,
                    1
                ],
                "metallicFactor" : 0,
                "roughnessFactor" : 0.5
            }
        },
        {
            "doubleSided" : true,
            "name" : "bigotes",
            "pbrMetallicRoughness" : {
                "baseColorFactor" : [
                    0.800000011920929,
                    0.800000011920929,
                    0.800000011920929,
                    1
                ],
                "metallicFactor" : 0,
                "roughnessFactor" : 0.5
            }
        },
        {
            "doubleSided" : true,
            "name" : "cejas",
            "pbrMetallicRoughness" : {
                "baseColorFactor" : [
                    0.800000011920929,
                    0.800000011920929,
                    0.800000011920929,
                    1
                ],
                "metallicFactor" : 0,
                "roughnessFactor" : 0.5
            }
        }
    ],
    "meshes" : [
        {
            "name" : "Mesh",
            "primitives" : [
                {
                    "attributes" : {
                        "POSITION" : 0,
                        "NORMAL" : 1,
                        "TEXCOORD_0" : 2
                    },
                    "indices" : 3,
                    "material" : 0
                },
                {
                    "attributes" : {
                        "POSITION" : 4,
                        "NORMAL" : 5,
                        "TEXCOORD_0" : 6
                    },
                    "indices" : 7,
                    "material" : 1
                },
                {
                    "attributes" : {
                        "POSITION" : 8,
                        "NORMAL" : 9,
                        "TEXCOORD_0" : 10
                    },
                    "indices" : 11,
                    "material" : 2
                },
                {
                    "attributes" : {
                        "POSITION" : 12,
                        "NORMAL" : 13,
                        "TEXCOORD_0" : 14
                    },
                    "indices" : 15,
                    "material" : 3
                },
                {
                    "attributes" : {
                        "POSITION" : 16,
                        "NORMAL" : 17,
                        "TEXCOORD_0" : 18
                    },
                    "indices" : 19,
                    "material" : 4
                },
                {
                    "attributes" : {
                        "POSITION" : 20,
                        "NORMAL" : 21,
                        "TEXCOORD_0" : 22
                    },
                    "indices" : 23,
                    "material" : 5
                }
            ]
        }
    ],
    "accessors" : [
        {
            "bufferView" : 0,
            "componentType" : 5126,
            "count" : 1280,
            "max" : [
                0.9166666865348816,
                0.9197531938552856,
                0.9166667461395264
            ],
            "min" : [
                -0.9166666865348816,
                -0.9197531938552856,
                -8.116665840148926
            ],
            "type" : "VEC3"
        },
        {
            "bufferView" : 1,
            "componentType" : 5126,
            "count" : 1280,
            "type" : "VEC3"
        },
        {
            "bufferView" : 2,
            "componentType" : 5126,
            "count" : 1280,
            "type" : "VEC2"
        },
        {
            "bufferView" : 3,
            "componentType" : 5123,
            "count" : 1920,
            "type" : "SCALAR"
        },
        {
            "bufferView" : 4,
            "componentType" : 5126,
            "count" : 1024,
            "max" : [
                0.4947996735572815,
                3.0394480228424072,
                4.6917619705200195
            ],
            "min" : [
                -9.735591888427734,
                -4.593323230743408,
                -11.539046287536621
            ],
            "type" : "VEC3"
        },
        {
            "bufferView" : 5,
            "componentType" : 5126,
            "count" : 1024,
            "type" : "VEC3"
        },
        {
            "bufferView" : 6,
            "componentType" : 5126,
            "count" : 1024,
            "type" : "VEC2"
        },
        {
            "bufferView" : 7,
            "componentType" : 5123,
            "count" : 1536,
            "type" : "SCALAR"
        },
        {
            "bufferView" : 8,
            "componentType" : 5126,
            "count" : 384,
            "max" : [
                1.3902199268341064,
                -1.0206573009490967,
                -1.8943655490875244
            ],
            "min" : [
                -0.034815046936273575,
                -2.4325170516967773,
                -4.952919006347656
            ],
            "type" : "VEC3"
        },
        {
            "bufferView" : 9,
            "componentType" : 5126,
            "count" : 384,
            "type" : "VEC3"
        },
        {
            "bufferView" : 10,
            "componentType" : 5126,
            "count" : 384,
            "type" : "VEC2"
        },
        {
            "bufferView" : 11,
            "componentType" : 5123,
            "count" : 576,
            "type" : "SCALAR"
        },
        {
            "bufferView" : 12,
            "componentType" : 5126,
            "count" : 768,
            "max" : [
                -1.5792901515960693,
                4.515959739685059,
                5.143537521362305
            ],
            "min" : [
                -5.667318344116211,
                1.676882266998291,
                -11.751565933227539
            ],
            "type" : "VEC3"
        },
        {
            "bufferView" : 13,
            "componentType" : 5126,
            "count" : 768,
            "type" : "VEC3"
        },
        {
            "bufferView" : 14,
            "componentType" : 5126,
            "count" : 768,
            "type" : "VEC2"
        },
        {
            "bufferView" : 15,
            "componentType" : 5123,
            "count" : 1152,
            "type" : "SCALAR"
        },
        {
            "bufferView" : 16,
            "componentType" : 5126,
            "count" : 3584,
            "max" : [
                0.8152258992195129,
                -1.0370957851409912,
                5.258805751800537
            ],
            "min" : [
                0.2822825312614441,
                -2.7281925678253174,
                -12.136506080627441
            ],
            "type" : "VEC3"
        },
        {
            "bufferView" : 17,
            "componentType" : 5126,
            "count" : 3584,
            "type" : "VEC3"
        },
        {
            "bufferView" : 18,
            "componentType" : 5126,
            "count" : 3584,
            "type" : "VEC2"
        },
        {
            "bufferView" : 19,
            "componentType" : 5123,
            "count" : 5376,
            "type" : "SCALAR"
        },
        {
            "bufferView" : 20,
            "componentType" : 5126,
            "count" : 1280,
            "max" : [
                0.6474195718765259,
                1.9817016124725342,
                1.5710371732711792
            ],
            "min" : [
                -0.26598164439201355,
                1.1411806344985962,
                -8.122160911560059
            ],
            "type" : "VEC3"
        },
        {
            "bufferView" : 21,
            "componentType" : 5126,
            "count" : 1280,
            "type" : "VEC3"
        },
        {
            "bufferView" : 22,
            "componentType" : 5126,
            "count" : 1280,
            "type" : "VEC2"
        },
        {
            "bufferView" : 23,
            "componentType" : 5123,
            "count" : 1920,
            "type" : "SCALAR"
        }
    ],
    "bufferViews" : [
        {
            "buffer" : 0,
            "byteLength" : 15360,
            "byteOffset" : 0
        },
        {
            "buffer" : 0,
            "byteLength" : 15360,
            "byteOffset" : 15360
        },
        {
            "buffer" : 0,
            "byteLength" : 10240,
            "byteOffset" : 30720
        },
        {
            "buffer" : 0,
            "byteLength" : 3840,
            "byteOffset" : 40960
        },
        {
            "buffer" : 0,
            "byteLength" : 12288,
            "byteOffset" : 44800
        },
        {
            "buffer" : 0,
            "byteLength" : 12288,
            "byteOffset" : 57088
        },
        {
            "buffer" : 0,
            "byteLength" : 8192,
            "byteOffset" : 69376
        },
        {
            "buffer" : 0,
            "byteLength" : 3072,
            "byteOffset" : 77568
        },
        {
            "buffer" : 0,
            "byteLength" : 4608,
            "byteOffset" : 80640
        },
        {
            "buffer" : 0,
            "byteLength" : 4608,
            "byteOffset" : 85248
        },
        {
            "buffer" : 0,
            "byteLength" : 3072,
            "byteOffset" : 89856
        },
        {
            "buffer" : 0,
            "byteLength" : 1152,
            "byteOffset" : 92928
        },
        {
            "buffer" : 0,
            "byteLength" : 9216,
            "byteOffset" : 94080
        },
        {
            "buffer" : 0,
            "byteLength" : 9216,
            "byteOffset" : 103296
        },
        {
            "buffer" : 0,
            "byteLength" : 6144,
            "byteOffset" : 112512
        },
        {
            "buffer" : 0,
            "byteLength" : 2304,
            "byteOffset" : 118656
        },
        {
            "buffer" : 0,
            "byteLength" : 43008,
            "byteOffset" : 120960
        },
        {
            "buffer" : 0,
            "byteLength" : 43008,
            "byteOffset" : 163968
        },
        {
            "buffer" : 0,
            "byteLength" : 28672,
            "byteOffset" : 206976
        },
        {
            "buffer" : 0,
            "byteLength" : 10752,
            "byteOffset" : 235648
        },
        {
            "buffer" : 0,
            "byteLength" : 15360,
            "byteOffset" : 246400
        },
        {
            "buffer" : 0,
            "byteLength" : 15360,
            "byteOffset" : 261760
        },
        {
            "buffer" : 0,
            "byteLength" : 10240,
            "byteOffset" : 277120
        },
        {
            "buffer" : 0,
            "byteLength" : 3840,
            "byteOffset" : 287360
        }
    ],
    "buffers" : [
        {
            "byteLength" : 291200,
            "uri" : "data:application/octet-stream;base64,"
        }
    ]
}
